<svg xmlns="http://www.w3.org/2000/svg" width="126.623" height="169.034" viewBox="0 0 126.623 169.034">
  <g id="Group_26661" data-name="Group 26661" transform="translate(-398.965 -308.951)">
    <g id="Group_10" data-name="Group 10" transform="translate(509.6 309.609)">
      <circle id="Ellipse_1" data-name="Ellipse 1" cx="7.665" cy="7.665" r="7.665" fill="none" stroke="#3f3fa0" stroke-miterlimit="10" stroke-width="1.317"/>
      <g id="Group_1" data-name="Group 1" transform="translate(4.752 3.358)">
        <path id="Path_1" data-name="Path 1" d="M595.528,315.261a4.938,4.938,0,0,1,2.747.637,2.216,2.216,0,0,1,.954,1.982,2.24,2.24,0,0,1-.385,1.361,2.534,2.534,0,0,1-1.109.822q.242.3.506.684t.523.8q.259.42.5.873t.448.891h-2q-.219-.39-.444-.793t-.461-.781q-.236-.379-.467-.718t-.461-.615h-.885v2.908H593.2v-7.848a10.145,10.145,0,0,1,1.213-.161Q595.034,315.261,595.528,315.261Zm.1,1.528c-.131,0-.247,0-.351.012l-.293.022v2.161h.505a3.054,3.054,0,0,0,1.448-.253.913.913,0,0,0,.437-.861.878.878,0,0,0-.443-.833A2.733,2.733,0,0,0,595.633,316.789Z" transform="translate(-593.196 -315.261)" fill="#3f3fa0"/>
      </g>
    </g>
    <g id="Group_2" data-name="Group 2" transform="translate(421.285 321.426)">
      <path id="Path_2" data-name="Path 2" d="M480.557,428.072a38,38,0,0,0,9.157-.919,16.863,16.863,0,0,0,5.8-2.506,8.4,8.4,0,0,0,3.024-3.759,13.348,13.348,0,0,0,.84-4.845q0-5.678-5.376-9.439t-18.481-8.1q-5.713-2-11.424-4.594a42.05,42.05,0,0,1-10.248-6.516,31.137,31.137,0,0,1-7.392-9.523,29.661,29.661,0,0,1-2.856-13.616A33.565,33.565,0,0,1,446.62,349.8a30.9,30.9,0,0,1,8.568-10.944,39.283,39.283,0,0,1,13.441-6.933,60.671,60.671,0,0,1,17.808-2.423,71.539,71.539,0,0,1,34.44,8.019l-7.56,20.55a72.01,72.01,0,0,0-10.836-4.428,47.235,47.235,0,0,0-14.365-1.921q-9.41,0-13.523,2.59a8.724,8.724,0,0,0-4.117,7.936,9.123,9.123,0,0,0,1.512,5.346,14.661,14.661,0,0,0,4.284,3.926,37.567,37.567,0,0,0,6.384,3.175q3.611,1.42,7.98,2.923,9.072,3.344,15.793,6.6a42.269,42.269,0,0,1,11.172,7.6,27.565,27.565,0,0,1,6.636,10.191,40.779,40.779,0,0,1,2.184,14.2q0,16.206-11.423,25.144t-34.441,8.938a96.208,96.208,0,0,1-13.944-.919,90.687,90.687,0,0,1-11-2.256,63.054,63.054,0,0,1-8.232-2.84c-2.3-1-9.272-4.27-10.84-5.162L446.707,426.6l1.483-5.879a75.255,75.255,0,0,0,13.634,5.1A67.008,67.008,0,0,0,480.557,428.072Z" transform="translate(-436.537 -329.5)" fill="#fff"/>
    </g>
    <g id="Group_9" data-name="Group 9" transform="translate(398.965 333.134)">
      <g id="Group_4" data-name="Group 4" transform="translate(0 120.755)">
        <g id="Group_3" data-name="Group 3">
          <path id="Path_3" data-name="Path 3" d="M406.041,573.909a6.839,6.839,0,0,0,1.662-.168,3.047,3.047,0,0,0,1.052-.457,1.529,1.529,0,0,0,.549-.687,2.442,2.442,0,0,0,.152-.884,2.044,2.044,0,0,0-.976-1.723,13.957,13.957,0,0,0-3.355-1.479q-1.037-.366-2.074-.839a7.654,7.654,0,0,1-1.861-1.189,5.675,5.675,0,0,1-1.342-1.739,5.44,5.44,0,0,1-.519-2.485,6.156,6.156,0,0,1,.549-2.639,5.637,5.637,0,0,1,1.556-2,7.122,7.122,0,0,1,2.44-1.266,10.96,10.96,0,0,1,3.233-.442,12.927,12.927,0,0,1,6.253,1.464l-1.372,3.752a12.953,12.953,0,0,0-1.968-.808,8.531,8.531,0,0,0-2.608-.351,4.789,4.789,0,0,0-2.455.473,1.6,1.6,0,0,0-.747,1.449,1.672,1.672,0,0,0,.275.976,2.665,2.665,0,0,0,.777.717,6.882,6.882,0,0,0,1.159.58q.655.259,1.449.533,1.647.61,2.867,1.2a7.666,7.666,0,0,1,2.028,1.388,5.036,5.036,0,0,1,1.2,1.861,7.494,7.494,0,0,1,.4,2.593,5.506,5.506,0,0,1-2.074,4.59q-2.075,1.631-6.253,1.632a17.316,17.316,0,0,1-2.531-.168,16.293,16.293,0,0,1-2-.411,11.351,11.351,0,0,1-1.495-.519,11.07,11.07,0,0,1-1.052-.519l1.342-3.782a11.91,11.91,0,0,0,2.333.93A12.1,12.1,0,0,0,406.041,573.909Z" transform="translate(-398.965 -553.871)" fill="#fff"/>
          <path id="Path_4" data-name="Path 4" d="M430.539,576.143V553.206l4.545-.732v7.686a9.417,9.417,0,0,1,1.174-.29,7.37,7.37,0,0,1,1.388-.137,8.589,8.589,0,0,1,3.248.533,5.054,5.054,0,0,1,2.074,1.51,5.844,5.844,0,0,1,1.1,2.318,12.877,12.877,0,0,1,.32,2.989v9.059h-4.545v-8.51a6.272,6.272,0,0,0-.564-3.112,2.257,2.257,0,0,0-2.09-.915,5.809,5.809,0,0,0-1.143.107q-.534.107-.961.228v12.2Z" transform="translate(-411.782 -552.474)" fill="#fff"/>
          <path id="Path_5" data-name="Path 5" d="M465.439,555.672a2.5,2.5,0,0,1-.809,1.967,2.893,2.893,0,0,1-3.813,0,2.8,2.8,0,0,1,0-3.935,2.893,2.893,0,0,1,3.813,0A2.5,2.5,0,0,1,465.439,555.672Zm-.427,20.679h-4.545V560.307h4.545Z" transform="translate(-423.745 -552.683)" fill="#fff"/>
          <path id="Path_6" data-name="Path 6" d="M482.57,552.474a9.976,9.976,0,0,1,2.348.259,11.545,11.545,0,0,1,1.647.5l-.884,3.63a5.965,5.965,0,0,0-1.327-.412,7.1,7.1,0,0,0-1.326-.137,3.7,3.7,0,0,0-1.388.229,2.145,2.145,0,0,0-.885.625,2.416,2.416,0,0,0-.457.946,4.891,4.891,0,0,0-.137,1.19v.792h5.612v3.782h-5.612v12.262h-4.545v-16.9a6.239,6.239,0,0,1,6.954-6.771Z" transform="translate(-430.08 -552.474)" fill="#fff"/>
          <path id="Path_7" data-name="Path 7" d="M501.907,564.59a10.54,10.54,0,0,1,3.355.457,5.223,5.223,0,0,1,2.151,1.312,4.834,4.834,0,0,1,1.143,2.074,10.246,10.246,0,0,1,.336,2.715V580.6q-.976.213-2.715.5a26.1,26.1,0,0,1-4.209.289,13.3,13.3,0,0,1-2.821-.275,6.112,6.112,0,0,1-2.181-.9,4.106,4.106,0,0,1-1.4-1.632,5.628,5.628,0,0,1-.488-2.47,4.679,4.679,0,0,1,.564-2.379,4.336,4.336,0,0,1,1.51-1.555,6.835,6.835,0,0,1,2.166-.84,12.194,12.194,0,0,1,2.531-.259,14.253,14.253,0,0,1,1.571.077,7.041,7.041,0,0,1,1.113.2v-.426a2.516,2.516,0,0,0-.7-1.861,3.4,3.4,0,0,0-2.44-.7,15.57,15.57,0,0,0-2.288.167,9.845,9.845,0,0,0-1.952.473l-.58-3.66c.264-.081.595-.168.991-.26s.829-.172,1.3-.244.961-.132,1.48-.183S501.377,564.59,501.907,564.59Zm.366,13.3c.447,0,.874-.009,1.281-.03a8.791,8.791,0,0,0,.976-.091V574.32q-.274-.061-.823-.122a9.219,9.219,0,0,0-1.007-.061,9.043,9.043,0,0,0-1.2.076,3.144,3.144,0,0,0-.992.289,1.688,1.688,0,0,0-.671.58,1.608,1.608,0,0,0-.244.915,1.558,1.558,0,0,0,.717,1.479A3.959,3.959,0,0,0,502.272,577.888Z" transform="translate(-437.978 -557.392)" fill="#fff"/>
          <path id="Path_8" data-name="Path 8" d="M532.12,556.324q4.728,0,7.259,1.662t2.532,5.445q0,3.813-2.562,5.505t-7.32,1.693h-1.494v7.076h-4.759V556.874a26.977,26.977,0,0,1,3.294-.427Q530.809,556.325,532.12,556.324Zm.305,4.057c-.346,0-.686.011-1.021.03s-.626.041-.869.061v6.1h1.494a8.1,8.1,0,0,0,3.721-.671A2.578,2.578,0,0,0,537,563.4a3.005,3.005,0,0,0-.32-1.464,2.431,2.431,0,0,0-.915-.93,4.116,4.116,0,0,0-1.449-.488A11.99,11.99,0,0,0,532.425,560.381Z" transform="translate(-450.441 -554.037)" fill="#20cebd"/>
          <path id="Path_9" data-name="Path 9" d="M568,569.106q-.61-.152-1.434-.32a8.889,8.889,0,0,0-1.769-.168,8.252,8.252,0,0,0-1.022.076,6.067,6.067,0,0,0-.9.167v12.262h-4.545V565.934a27.4,27.4,0,0,1,2.882-.809,16.626,16.626,0,0,1,3.706-.381q.365,0,.884.046t1.037.122q.518.077,1.037.183a4.9,4.9,0,0,1,.884.259Z" transform="translate(-463.654 -557.455)" fill="#20cebd"/>
          <path id="Path_10" data-name="Path 10" d="M593.965,573.009a10.428,10.428,0,0,1-.549,3.462,7.524,7.524,0,0,1-1.586,2.684,7.14,7.14,0,0,1-2.486,1.723,8.874,8.874,0,0,1-6.466,0,7.129,7.129,0,0,1-2.485-1.723,7.873,7.873,0,0,1-1.617-2.684,9.932,9.932,0,0,1-.579-3.462,9.576,9.576,0,0,1,.594-3.447,7.816,7.816,0,0,1,1.647-2.654,7.4,7.4,0,0,1,2.5-1.708,8.052,8.052,0,0,1,3.156-.61,8.136,8.136,0,0,1,3.187.61,7.248,7.248,0,0,1,2.486,1.708,7.77,7.77,0,0,1,1.617,2.654A9.822,9.822,0,0,1,593.965,573.009Zm-4.636,0a5.72,5.72,0,0,0-.838-3.31,2.745,2.745,0,0,0-2.395-1.2,2.783,2.783,0,0,0-2.41,1.2,5.633,5.633,0,0,0-.854,3.31,5.781,5.781,0,0,0,.854,3.34,2.76,2.76,0,0,0,2.41,1.235,2.723,2.723,0,0,0,2.395-1.235A5.87,5.87,0,0,0,589.328,573.009Z" transform="translate(-471.72 -557.392)" fill="#20cebd"/>
        </g>
      </g>
      <g id="Group_8" data-name="Group 8" transform="translate(13.256)">
        <g id="Group_7" data-name="Group 7">
          <path id="Path_11" data-name="Path 11" d="M493.37,424.26c0,.384-.015.752-.046,1.12a12.69,12.69,0,0,1-.79,3.75,8.091,8.091,0,0,1-2.393,3.267c-.2.176-.414.345-.636.506a16.715,16.715,0,0,1-5.79,2.523,37.876,37.876,0,0,1-9.149.92,66.338,66.338,0,0,1-18.721-2.27c-.9-.268-1.787-.545-2.638-.828a69.123,69.123,0,0,1-7.017-2.7c-1.135-.513-2.194-1.042-3.191-1.587l-2.086,5.867-19.634,25.4V377.216c0-15.324,11.243-27.771,25.2-28.008a30.984,30.984,0,0,0-5.828,8.482,33.846,33.846,0,0,0-3.022,14.518,29.946,29.946,0,0,0,2.853,13.682,31.113,31.113,0,0,0,7.385,9.571,41.923,41.923,0,0,0,10.246,6.55q5.707,2.612,11.412,4.617,13.1,4.372,18.468,8.145T493.37,424.26Z" transform="translate(-421.278 -349.208)" fill="#0f0f67"/>
          <path id="Path_12" data-name="Path 12" d="M539.081,405.181c-.046.606-.076.936-.076.936v-1a44.759,44.759,0,0,0-9.058-5.736q-6.707-3.267-15.776-6.626-4.372-1.519-7.976-2.938a37.731,37.731,0,0,1-6.381-3.19,14.7,14.7,0,0,1-4.28-3.95,9.151,9.151,0,0,1-1.511-5.368,8.774,8.774,0,0,1,4.111-7.977q4.107-2.6,13.514-2.607a47.1,47.1,0,0,1,14.357,1.933,71.574,71.574,0,0,1,10.829,4.448l.016-.046.061-.169c.008.008.015.015.015.023C540.592,381.152,539.411,400.686,539.081,405.181Z" transform="translate(-450.808 -356.319)" fill="#20cebd"/>
          <g id="Group_5" data-name="Group 5" transform="translate(86.042 16.573)">
            <line id="Line_1" data-name="Line 1" x1="0.061" y2="0.169" fill="#20cebd"/>
          </g>
          <g id="Group_6" data-name="Group 6" transform="translate(86.042 16.573)">
            <path id="Path_13" data-name="Path 13" d="M566.112,377.275l.061-.169" transform="translate(-566.112 -377.106)" fill="#20cebd"/>
          </g>
        </g>
      </g>
    </g>
  </g>
</svg>
